<svg xmlns="http://www.w3.org/2000/svg" xmlns:xlink="http://www.w3.org/1999/xlink" width="1581" height="252" viewBox="0 0 1581 252">
  <defs>
    <circle id="logo-header-a" cx="117.477" cy="117.477" r="117.477"/>
    <circle id="logo-header-c" cx="117.477" cy="117.477" r="117.477"/>
    <circle id="logo-header-e" cx="117.477" cy="117.477" r="117.477"/>
    <circle id="logo-header-g" cx="117.477" cy="117.477" r="117.477"/>
  </defs>
  <g fill="none" fill-rule="evenodd" transform="translate(6 6)">
    <g transform="rotate(90 120 120)">
      <g transform="rotate(90 117.477 120.36)">
        <mask id="logo-header-b" fill="#fff">
          <use xlink:href="#logo-header-a"/>
        </mask>
        <rect width="126.126" height="126.126" x="117.477" y="-8.649" fill="#363636" mask="url(#logo-header-b)"/>
      </g>
      <g transform="rotate(-180 118.919 118.919)">
        <mask id="logo-header-d" fill="#fff">
          <use xlink:href="#logo-header-c"/>
        </mask>
        <rect width="125.126" height="125.126" x="117.977" y="-8.149" fill="#FFF" stroke="#979797" mask="url(#logo-header-d)"/>
      </g>
      <g transform="translate(2.883 2.162)">
        <mask id="logo-header-f" fill="#fff">
          <use xlink:href="#logo-header-e"/>
        </mask>
        <rect width="126.126" height="126.126" x="117.477" y="-8.649" fill="#D34646" mask="url(#logo-header-f)"/>
      </g>
      <g transform="rotate(-90 120 117.117)">
        <mask id="logo-header-h" fill="#fff">
          <use xlink:href="#logo-header-g"/>
        </mask>
        <rect width="126.126" height="126.126" x="117.477" y="-8.649" fill="#FFE680" mask="url(#logo-header-h)"/>
      </g>
      <path fill="#68D1BA" stroke="#D7D7D7" stroke-width="11" d="M127.835168,86.2026664 L155.611423,111.929854 C160.068442,116.058076 160.334984,123.017789 156.206762,127.474807 C156.015986,127.680778 155.817394,127.87937 155.611423,128.070146 L127.835168,153.797334 C123.617561,157.703806 117.10316,157.703806 112.885553,153.797334 L85.1092973,128.070146 C80.6522788,123.941924 80.3857366,116.982211 84.5139587,112.525193 C84.7047349,112.319222 84.9033266,112.12063 85.1092973,111.929854 L112.885553,86.2026664 C117.10316,82.2961943 123.617561,82.2961943 127.835168,86.2026664 Z"/>
      <path stroke="#D7D7D7" stroke-linecap="square" stroke-width="11" d="M120.720721 83.6036036L120.720721 2.16216216M160 119.63964L237.837838 119.63964M120.720721 156.396396L120.720721 237.117117M81.4414414 119.63964L2.88288288 119.63964"/>
      <circle cx="120" cy="120" r="120" stroke="#D7D7D7" stroke-width="11"/>
    </g>
    <path fill="#FFF" fill-rule="nonzero" d="M503,49 L513.334802,49 L513.334802,181.668571 L595,181.668571 L595,191 L503,191 L503,49 Z M741.791367,151.037143 L660.007194,151.037143 L642.079137,191 L631,191 L695.863309,49 L706.136691,49 L771,191 L759.920863,191 L741.791367,151.037143 Z M738,142 L700.39782,60 L663,142 L738,142 Z M945,49 L945,191 L934.710526,191 L934.710526,123.448571 L840.289474,123.448571 L840.289474,191 L830,191 L830,49 L840.289474,49 L840.289474,114.32 L934.710526,114.32 L934.710526,49 L945,49 Z M1089,192 C1075.04022,192 1062.43595,188.856369 1051.18681,182.569014 C1039.93767,176.281659 1031.09435,167.662027 1024.65659,156.709859 C1018.21883,145.757692 1015,133.521194 1015,120 C1015,106.478806 1018.21883,94.2423083 1024.65659,83.2901408 C1031.09435,72.3379734 1039.93767,63.7183413 1051.18681,57.4309859 C1062.43595,51.1436305 1075.04022,48 1089,48 C1102.95978,48 1115.56405,51.1098281 1126.81319,57.3295775 C1138.06233,63.5493269 1146.90565,72.1351565 1153.34341,83.0873239 C1159.78117,94.0394914 1163,106.343594 1163,120 C1163,133.656406 1159.78117,145.960509 1153.34341,156.912676 C1146.90565,167.864843 1138.06233,176.450673 1126.81319,182.670423 C1115.56405,188.890172 1102.95978,192 1089,192 Z M1088.6016,182 C1100.52273,182 1111.29222,179.316044 1120.9104,173.948052 C1130.52858,168.58006 1138.11464,161.165632 1143.6688,151.704545 C1149.22296,142.243459 1152,131.675383 1152,120 C1152,108.324617 1149.22296,97.7565408 1143.6688,88.2954545 C1138.11464,78.8343683 1130.52858,71.4199403 1120.9104,66.0519481 C1111.29222,60.6839558 1100.52273,58 1088.6016,58 C1076.68047,58 1065.87712,60.6839558 1056.1912,66.0519481 C1046.50528,71.4199403 1038.88536,78.8343683 1033.3312,88.2954545 C1027.77704,97.7565408 1025,108.324617 1025,120 C1025,131.675383 1027.77704,142.243459 1033.3312,151.704545 C1038.88536,161.165632 1046.50528,168.58006 1056.1912,173.948052 C1065.87712,179.316044 1076.68047,182 1088.6016,182 Z M1365.88764,191 L1365.68539,69.4885714 L1306.42697,172.134286 L1301.37079,172.134286 L1242.11236,69.8942857 L1242.11236,191 L1232,191 L1232,49 L1240.69663,49 L1304,158.745714 L1367.30337,49 L1375.79775,49 L1376,191 L1365.88764,191 Z M1545.79137,151.037143 L1464.00719,151.037143 L1446.07914,191 L1435,191 L1499.86331,49 L1510.13669,49 L1575,191 L1563.92086,191 L1545.79137,151.037143 Z M1543,142 L1505.39782,60 L1468,142 L1543,142 Z"/>
  </g>
</svg>
