<svg xmlns="http://www.w3.org/2000/svg" xmlns:xlink="http://www.w3.org/1999/xlink" width="931" height="562" viewBox="0 0 931 562">
  <defs>
    <circle id="logo3-a" cx="99.366" cy="99.366" r="99.366"/>
    <circle id="logo3-c" cx="99.366" cy="99.366" r="99.366"/>
    <circle id="logo3-e" cx="99.366" cy="99.366" r="99.366"/>
    <circle id="logo3-g" cx="99.366" cy="99.366" r="99.366"/>
  </defs>
  <g fill="none" fill-rule="evenodd">
    <g transform="translate(17 353)">
      <g transform="rotate(90 276 276)">
        <g transform="rotate(90 99.366 101.805)">
          <mask id="logo3-b" fill="#fff">
            <use xlink:href="#logo3-a"/>
          </mask>
          <rect width="106.682" height="106.682" x="99.366" y="-7.315" fill="#363636" mask="url(#logo3-b)"/>
        </g>
        <g transform="rotate(-180 100.586 100.586)">
          <mask id="logo3-d" fill="#fff">
            <use xlink:href="#logo3-c"/>
          </mask>
          <rect width="105.682" height="105.682" x="99.866" y="-6.815" fill="#FFF" stroke="#979797" mask="url(#logo3-d)"/>
        </g>
        <g transform="translate(2.438 1.829)">
          <mask id="logo3-f" fill="#fff">
            <use xlink:href="#logo3-e"/>
          </mask>
          <rect width="106.682" height="106.682" x="99.366" y="-7.315" fill="#D34646" mask="url(#logo3-f)"/>
        </g>
        <g transform="rotate(-90 101.5 99.062)">
          <mask id="logo3-h" fill="#fff">
            <use xlink:href="#logo3-g"/>
          </mask>
          <rect width="106.682" height="106.682" x="99.366" y="-7.315" fill="#FFE680" mask="url(#logo3-h)"/>
        </g>
        <path fill="#68D1BA" stroke="#D7D7D7" stroke-width="11" d="M109.279612,73.9804442 L130.27809,93.4298541 C134.735109,97.5580761 135.001651,104.517789 130.873429,108.974807 C130.682652,109.180778 130.484061,109.37937 130.27809,109.570146 L109.279612,129.019556 C105.062005,132.926028 98.5476045,132.926028 94.3299975,129.019556 L73.3315196,109.570146 C68.874501,105.441924 68.6079588,98.4822112 72.7361809,94.0251927 C72.9269571,93.8192219 73.1255488,93.6206303 73.3315196,93.4298541 L94.3299975,73.9804442 C98.5476045,70.0739721 105.062005,70.0739721 109.279612,73.9804442 Z"/>
        <path stroke="#D7D7D7" stroke-linecap="square" stroke-width="11" d="M102.10961 70.7147147L102.10961 1.82882883M135.333333 101.195195L201.171171 101.195195M102.10961 132.285285L102.10961 200.561562M68.8858859 101.195195L2.43843844 101.195195"/>
        <circle cx="101.5" cy="101.5" r="101.5" stroke="#D7D7D7" stroke-width="11"/>
      </g>
      <path fill="#68D1BA" stroke="#D7D7D7" stroke-linejoin="round" stroke-width="11" d="M152.235437,-51 C162.788231,59.8357228 171.607001,134.139355 178.691748,171.910896 C182.347476,191.401007 186.817106,208.281884 192.100637,222.553526 C195.404552,231.477917 200.371006,241.960075 207,254 C190.597087,247.436544 172.518608,244.154816 152.764563,244.154816 C133.010518,244.154816 114.755663,247.436544 98,254 C109.06933,237.112594 118.152663,209.749559 125.25,171.910896 C132.347337,134.072233 141.342482,59.7686011 152.235437,-51 Z" transform="rotate(-90 152.5 101.5)"/>
      <path fill="#68D1BA" stroke="#D7D7D7" stroke-linejoin="round" stroke-width="11" d="M748.235437,-51 C758.788231,59.8357228 767.607001,134.139355 774.691748,171.910896 C778.347476,191.401007 782.817106,208.281884 788.100637,222.553526 C791.404552,231.477917 796.371006,241.960075 803,254 C786.597087,247.436544 768.518608,244.154816 748.764563,244.154816 C729.010518,244.154816 710.755663,247.436544 694,254 C705.06933,237.112594 714.152663,209.749559 721.25,171.910896 C728.347337,134.072233 737.342482,59.7686011 748.235437,-51 Z" transform="matrix(0 -1 -1 0 850 850)"/>
    </g>
    <path fill="#FFF" fill-rule="nonzero" d="M0 1L8.98678414 1 8.98678414 115.917143 80 115.917143 80 124 0 124 0 1zM207.546763 89.3842857L136.277698 89.3842857 120.654676 124 111 124 167.523741 1 176.476259 1 233 124 223.345324 124 207.546763 89.3842857zM205 81L172.411444 10 140 81 205 81zM385 1L385 124 376.052632 124 376.052632 65.4871429 293.947368 65.4871429 293.947368 124 285 124 285 1 293.947368 1 293.947368 57.58 376.052632 57.58 376.052632 1 385 1zM509 125C496.92668 125 486.02569 122.271154 476.296703 116.81338 466.567717 111.355607 458.919442 103.873287 453.351648 94.3661972 447.783855 84.8591074 445 74.2371479 445 62.5 445 50.7628521 447.783855 40.1408926 453.351648 30.6338028 458.919442 21.126713 466.567717 13.6443935 476.296703 8.18661972 486.02569 2.72884595 496.92668 0 509 0 521.07332 0 531.97431 2.69950352 541.703297 8.09859155 551.432283 13.4976796 559.080558 20.9506567 564.648352 30.4577465 570.216145 39.9648363 573 50.6454806 573 62.5 573 74.3545194 570.216145 85.0351637 564.648352 94.5422535 559.080558 104.049343 551.432283 111.50232 541.703297 116.901408 531.97431 122.300496 521.07332 125 509 125zM508.088 116C518.413385 116 527.741292 113.662361 536.072 108.987013 544.402708 104.311665 550.973309 97.8539373 555.784 89.6136364 560.594691 81.3733354 563 72.168882 563 62 563 51.831118 560.594691 42.6266646 555.784 34.3863636 550.973309 26.1460627 544.402708 19.6883351 536.072 15.012987 527.741292 10.337639 518.413385 8 508.088 8 497.762615 8 488.405375 10.337639 480.016 15.012987 471.626625 19.6883351 465.026691 26.1460627 460.216 34.3863636 455.405309 42.6266646 453 51.831118 453 62 453 72.168882 455.405309 81.3733354 460.216 89.6136364 465.026691 97.8539373 471.626625 104.311665 480.016 108.987013 488.405375 113.662361 497.762615 116 508.088 116zM749.22191 124L749.046348 18.7471429 697.606742 107.658571 693.217697 107.658571 641.77809 19.0985714 641.77809 124 633 124 633 1 640.549157 1 695.5 96.0614286 750.450843 1 757.824438 1 758 124 749.22191 124zM905.546763 89.3842857L834.277698 89.3842857 818.654676 124 809 124 865.523741 1 874.476259 1 931 124 921.345324 124 905.546763 89.3842857zM902 81L869.411444 10 837 81 902 81zM9.42535971 226.140271L9.42535971 253 0 253 0 197 9.42535971 197 9.42535971 222.508296 37.5746403 222.508296 37.5746403 197 47 197 47 253 37.5746403 253 37.5746403 226.140271 9.42535971 226.140271zM132 197L132 200.631976 102.432755 200.631976 102.432755 220.650075 122.22885 220.650075 122.22885 224.282051 102.432755 224.282051 102.432755 249.368024 132 249.368024 132 253 93 253 93 197 132 197zM195.507202 195L222 253 212.362396 253 203.786202 234.094395 179.628506 234.094395 170.755118 253 166 253 193.129644 195 195.507202 195zM182 232L203 232 192.650307 209 182 232zM261 197L270.510662 197 270.510662 249.368024 299 249.368024 299 253 261 253 261 197zM337 197L347 197 347 253 337 253 337 197zM393 197L398.331216 197 435.393829 238.459101 435.820327 238.459101 435.820327 197 440 197 440 255 437.782214 255 397.64882 208.924834 397.307623 208.924834 397.307623 253.675018 393 253.675018 393 197zM517.557047 200.041096C514.156583 200.041096 511.018284 200.643709 508.142058 201.848955 505.265832 203.0542 502.786364 204.784055 500.703579 207.038572 498.620795 209.29309 496.998514 212.015485 495.836689 215.20584 494.674864 218.396195 494.09396 221.962249 494.09396 225.90411 494.09396 229.874329 494.724453 233.454562 495.985459 236.644917 497.246464 239.835272 498.975008 242.550578 501.171141 244.790916 503.367274 247.031254 505.953005 248.754019 508.928412 249.959265 511.903818 251.16451 515.091706 251.767123 518.49217 251.767123 520.957507 251.767123 523.181944 251.433913 525.165548 250.767484 527.149152 250.101054 528.934369 249.143962 530.521253 247.896179L530.521253 228.116078 519.852349 228.116078 519.852349 224.755588 540 224.755588 540 249.555155C538.356442 250.434275 536.698741 251.214128 535.026846 251.894737 533.354951 252.575346 531.548481 253.142512 529.607383 253.596251 527.666284 254.04999 525.533942 254.397379 523.210291 254.638428 520.88664 254.879477 518.25132 255 515.304251 255 512.187158 255 509.225965 254.652611 506.420582 253.957823 503.615199 253.263034 501.015299 252.277584 498.620805 251.001442 496.226312 249.7253 494.065632 248.201042 492.138702 246.428623 490.211773 244.656204 488.575324 242.692392 487.229306 240.53713 485.883289 238.381869 484.841913 236.063579 484.105145 233.582192 483.368378 231.100805 483 228.54147 483 225.90411 483 223.26675 483.347126 220.693235 484.041387 218.18349 484.735649 215.673744 485.73452 213.305827 487.038031 211.079668 488.341543 208.85351 489.928402 206.818803 491.798658 204.975487 493.668913 203.132171 495.780003 201.544107 498.131991 200.211247 500.483979 198.878388 503.048457 197.843311 505.825503 197.105984 508.602549 196.368658 511.549574 196 514.666667 196 517.642073 196 520.397825 196.404106 522.934004 197.212329 525.470184 198.020552 527.779632 199.091077 529.862416 200.423937 531.945201 201.756796 533.794175 203.295233 535.409396 205.039293 537.024617 206.783354 538.413119 208.605374 539.574944 210.505407L535.494407 213.22783C533.114082 208.662078 530.471677 205.32289 527.567114 203.210166 524.662551 201.097442 521.325895 200.041096 517.557047 200.041096zM655.507202 195L682 253 672.362396 253 663.786202 234.094395 639.628506 234.094395 630.755118 253 626 253 653.129644 195 655.507202 195zM640 232L661 232 650.650307 209 640 232zM719 197L738.672429 197C742.065228 197 745.044573 197.358971 747.610555 198.076923 750.176537 198.794875 752.314823 199.801401 754.025478 201.096531 755.736132 202.391661 757.026232 203.933123 757.895814 205.720965 758.765397 207.508807 759.200182 209.458511 759.200182 211.570136 759.200182 213.315745 758.865184 214.94871 758.195177 216.46908 757.525171 217.98945 756.584325 219.361985 755.372611 220.586727 754.160898 221.811469 752.699736 222.867266 750.989081 223.754148 749.278426 224.64103 747.396735 225.337856 745.343949 225.844646L766 253 754.923567 253 735.208371 226.689291 728.536852 226.689291 728.536852 253 719 253 719 197zM729 224L734.691176 224C736.89707 224 738.933814 223.710672 740.801471 223.132007 742.669127 222.553342 744.286758 221.735991 745.654412 220.679928 747.022066 219.623865 748.088231 218.343588 748.852941 216.83906 749.617651 215.334531 750 213.641962 750 211.761302 750 210.025308 749.698532 208.434004 749.095588 206.987342 748.492644 205.54068 747.639711 204.303803 746.536765 203.276673 745.433818 202.249543 744.125008 201.446658 742.610294 200.867993 741.095581 200.289328 739.441185 200 737.647059 200L729 200 729 224zM849 197L849 200.631976 828.712595 200.631976 828.712595 253 819.287405 253 819.287405 200.631976 799 200.631976 799 197 849 197zM907.529101 251.42682C908.911823 251.42682 910.280417 251.235402 911.634921 250.852559 912.989425 250.469717 914.202817 249.902551 915.275132 249.151045 916.347448 248.39954 917.20811 247.477895 917.857143 246.386085 918.506176 245.294275 918.830688 244.025242 918.830688 242.578947 918.830688 240.849066 918.386248 239.310629 917.497354 237.96359 916.608461 236.616552 915.444452 235.382966 914.005291 234.262797 912.56613 233.142628 910.922408 232.086282 909.074074 231.093727 907.22574 230.101173 905.342161 229.108633 903.42328 228.116078 901.5044 227.123523 899.620821 226.081356 897.772487 224.989546 895.924153 223.897735 894.28043 222.678329 892.84127 221.331291 891.402109 219.984252 890.2381 218.481263 889.349206 216.822278 888.460313 215.163294 888.015873 213.256199 888.015873 211.100937 888.015873 208.945675 888.417985 206.946416 889.222222 205.1031 890.026459 203.259784 891.204578 201.664631 892.756614 200.317592 894.30865 198.970553 896.220447 197.914207 898.492063 197.148522 900.76368 196.382837 903.366828 196 906.301587 196 908.954158 196 911.324505 196.283583 913.412698 196.850757 915.500892 197.417931 917.335089 198.254501 918.915344 199.36049 920.495599 200.46648 921.835973 201.827678 922.936508 203.444124 924.037043 205.06057 924.925926 206.932217 925.603175 209.05912L920.777778 211.271089C920.213401 209.541207 919.493832 207.960233 918.619048 206.528118 917.744264 205.096003 916.700182 203.869508 915.486772 202.848594 914.273363 201.827681 912.869497 201.040738 911.275132 200.487743 909.680768 199.934748 907.881844 199.658255 905.878307 199.658255 904.10052 199.658255 902.548508 199.90639 901.222222 200.402668 899.895937 200.898945 898.788364 201.551186 897.899471 202.359409 897.010578 203.167632 896.347445 204.075097 895.910053 205.081831 895.472661 206.088565 895.253968 207.116553 895.253968 208.165826 895.253968 209.640478 895.705463 210.994586 896.608466 212.22819 897.511468 213.461794 898.710751 214.624484 900.206349 215.716294 901.701948 216.808104 903.402107 217.864451 905.306878 218.885364 907.21165 219.906278 909.151666 220.941355 911.126984 221.990627 913.102303 223.0399 915.042319 224.131693 916.94709 225.266042 918.851861 226.40039 920.552021 227.641065 922.047619 228.988104 923.543217 230.335143 924.7425 231.809773 925.645503 233.41204 926.548505 235.014307 927 236.807969 927 238.793079 927 241.033417 926.576724 243.139019 925.730159 245.10995 924.883594 247.08088 923.613765 248.796556 921.920635 250.25703 920.227505 251.717503 918.125233 252.873103 915.613757 253.723864 913.10228 254.574626 910.181674 255 906.851852 255 904.142844 255 901.730169 254.702238 899.613757 254.106705 897.497344 253.511172 895.627874 252.646245 894.005291 251.511896 892.382708 250.377548 890.992951 248.995081 889.835979 247.364456 888.679007 245.73383 887.73369 243.869273 887 241.770728L892.037037 239.686373C892.629633 241.52969 893.426803 243.17447 894.428571 244.620764 895.43034 246.067058 896.59435 247.293554 897.920635 248.300288 899.24692 249.307023 900.721332 250.079786 902.343915 250.618601 903.966498 251.157417 905.694876 251.42682 907.529101 251.42682z"/>
  </g>
</svg>
