<svg xmlns="http://www.w3.org/2000/svg" width="840" height="253" viewBox="0 0 840 253">
  <path fill="#FFF" d="M16.133 30.4430303C16.133 23.6945117 15.199676 18.6993596 13.333 15.4574242 11.466324 12.2154888 7.733028 10.5945455 2.133 10.5945455L.133 10.5945455.133 4.64 24.133 4.64C28.933024 4.64 32.599654 5.43393145 35.133 7.02181818 37.666346 8.60970491 39.466328 11.2230626 40.533 14.8619697 41.599672 18.5008768 42.133 23.6945117 42.133 30.4430303L42.133 126.708182 111.133 126.708182 111.133 135.64 16.133 135.64 16.133 30.4430303zM240.576114 136.64C232.213797 136.64 224.648004 134.883993 217.878509 131.371928 211.109014 127.859862 205.600586 121.001497 201.35306 110.796627L196.773719 99.6640964 143.812641 99.6640964 127.486293 135.844819 117.133 135.844819 175.86803 4.64 184.827611 4.64 229.426413 110.796627C234.470351 123.121989 241.372477 129.748429 250.133 130.676145L250.133 135.646024C247.743766 136.308678 244.55817 136.64 240.576114 136.64zM149.133 90.64L194.133 90.64 172.230345 38.64 149.133 90.64zM263.017058 30.4430303C263.017058 23.6945117 262.090497 18.6993596 260.237348 15.4574242 258.384198 12.2154888 254.677955 10.5945455 249.118507 10.5945455L247.133 10.5945455 247.133 4.64 270.959087 4.64C275.724328 4.64 279.364388 5.43393145 281.879377 7.02181818 284.394365 8.60970491 286.181304 11.2230626 287.240246 14.8619697 288.299189 18.5008768 288.828652 23.6945117 288.828652 30.4430303L288.828652 63.1930303 342.437348 63.1930303 342.437348 4.64 368.248942 4.64 368.248942 109.83697C368.248942 116.585488 369.175503 121.58064 371.028652 124.822576 372.881802 128.064511 376.588045 129.685455 382.147493 129.685455L384.133 129.685455 384.133 135.64 360.306913 135.64C355.541672 135.64 351.901612 134.879149 349.386623 133.357424 346.871635 131.835699 345.084696 129.255422 344.025754 125.616515 342.966811 121.977608 342.437348 116.717812 342.437348 109.83697L342.437348 72.1248485 288.828652 72.1248485 288.828652 135.64 263.017058 135.64 263.017058 30.4430303zM460.732393 139.64C447.877498 139.64 436.447415 136.595269 426.441801 130.505714 416.436187 124.41616 408.71674 116.076243 403.283228 105.485714 397.849715 94.8951851 395.133 83.1133982 395.133 70.14 395.133 57.1666018 397.849715 45.3848149 403.283228 34.7942857 408.71674 24.2037566 416.436187 15.86384 426.441801 9.77428571 436.447415 3.68473146 447.877498.64 460.732393.64 473.587288.64 484.98424 3.68473146 494.923592 9.77428571 504.862943 15.86384 512.54926 24.2037566 517.982772 34.7942857 523.416285 45.3848149 526.133 57.1666018 526.133 70.14 526.133 83.1133982 523.416285 94.8951851 517.982772 105.485714 512.54926 116.076243 504.862943 124.41616 494.923592 130.505714 484.98424 136.595269 473.587288 139.64 460.732393 139.64zM461.033262 130.64C473.13481 130.64 482.510045 125.383495 489.159247 114.870328 495.808449 104.357161 499.133 89.4472004 499.133 70.14 499.133 50.8327996 495.808449 35.9228395 489.159247 25.4096721 482.510045 14.8965048 473.13481 9.64 461.033262 9.64 448.931715 9.64 439.589726 14.8965048 433.007016 25.4096721 426.424306 35.9228395 423.133 50.8327996 423.133 70.14 423.133 89.4472004 426.424306 104.357161 433.007016 114.870328 439.589726 125.383495 448.931715 130.64 461.033262 130.64zM702.133 144.64C687.881958 144.64 677.622682 141.297244 671.354863 134.611631 665.087044 127.926019 661.953181 117.037239 661.953181 101.944965L661.953181 31.6470922 618.60648 135.70383 612.074785 135.70383 559.029507 27.675461 559.029507 135.70383 549.133 135.70383 549.133 4.64 573.280477 4.64 621.179572 102.143546 661.755251 4.64 687.6841 4.64 687.6841 101.944965C687.6841 114.389471 688.739716 123.524132 690.850982 129.34922 692.962247 135.174308 696.722882 138.616354 702.133 139.675461L702.133 144.64zM830.576114 136.64C822.213797 136.64 814.648004 134.883993 807.878509 131.371928 801.109014 127.859862 795.600586 121.001497 791.35306 110.796627L786.773719 99.6640964 733.812641 99.6640964 717.486293 135.844819 707.133 135.844819 765.86803 4.64 774.827611 4.64 819.426413 110.796627C824.470351 123.121989 831.372477 129.748429 840.133 130.676145L840.133 135.646024C837.743766 136.308678 834.55817 136.64 830.576114 136.64zM738.133 90.64L783.133 90.64 761.230345 38.64 738.133 90.64zM21.9867795 230.045299L21.9867795 250.985778 10.9970444 250.985778 10.9970444 207.030222 21.9867795 207.030222 21.9867795 226.285089 39.9729826 226.285089 39.9729826 207.030222 50.8637111 207.030222 50.8637111 250.985778 39.9729826 250.985778 39.9729826 230.045299 21.9867795 230.045299zM125.485933 207.030222L125.485933 210.790432 103.527833 210.790432 103.527833 225.280206 121.772431 225.280206 121.772431 229.040416 103.527833 229.040416 103.527833 246.480009 125.485933 246.480009 125.485933 250.985778 92.7748222 250.985778 92.7748222 207.030222 125.485933 207.030222zM184.465531 206.008L205.219267 250.985778 194.124502 250.985778 188.57712 238.961372 171.380235 238.961372 165.5718 250.985778 158.197044 250.985778 179.766572 206.008 184.465531 206.008zM173.530378 234.630222L186.819267 234.630222 180.272535 220.319111 173.530378 234.630222zM242.019267 207.030222L252.978486 207.030222 252.978486 246.480009 275.7526 246.480009 275.7526 250.985778 242.019267 250.985778 242.019267 207.030222zM313.574822 207.030222L324.819267 207.030222 324.819267 250.985778 313.574822 250.985778 313.574822 207.030222zM364.685933 207.030222L371.797826 207.030222 397.607653 235.206708 397.607653 207.030222 404.5526 207.030222 404.5526 252.008 399.777949 252.008 371.731048 220.889654 371.731048 251.354253 364.685933 251.354253 364.685933 207.030222zM472.9544 229.775211L491.441489 229.775211 491.441489 246.817084C490.018556 247.578858 488.595645 248.275326 487.172712 248.90651 485.749779 249.537693 484.228358 250.081809 482.608404 250.538873 480.98845 250.995937 479.220756 251.355053 477.305269 251.616233 475.389783 251.877412 473.238997 252.008 470.852848 252.008 467.021875 252.008 463.49196 251.474767 460.262997 250.408284 457.034034 249.341801 454.242939 247.840042 451.889627 245.902961 449.536315 243.96588 447.702948 241.626183 446.389472 238.883798 445.075995 236.141414 444.419267 233.105249 444.419267 229.775211 444.419267 226.249288 445.075995 223.028123 446.389472 220.11162 447.702948 217.195116 449.530842 214.692184 451.873208 212.602748 454.215575 210.513312 457.001198 208.891848 460.230161 207.738305 463.459123 206.584763 466.989039 206.008 470.820012 206.008 473.074813 206.008 475.247489 206.312705 477.338106 206.922123 479.428723 207.531542 481.360599 208.336833 483.133792 209.338021 484.906985 210.339209 486.505024 211.487293 487.927957 212.782308 489.35089 214.077323 490.522055 215.410406 491.441489 216.781598L486.942855 220.862507C486.00153 219.534845 485.016437 218.305143 483.987547 217.173366 482.958657 216.041588 481.86411 215.056739 480.703873 214.218788 479.543635 213.380837 478.301324 212.722457 476.976902 212.243628 475.65248 211.764799 474.235041 211.525388 472.724543 211.525388 470.425959 211.525388 468.286119 211.938916 466.304959 212.765984 464.323798 213.593053 462.605359 214.784666 461.149589 216.34086 459.69382 217.897054 458.555491 219.8069 457.734568 222.070456 456.913645 224.334011 456.50319 226.902237 456.50319 229.775211 456.50319 232.648185 456.941009 235.183764 457.81666 237.382024 458.692311 239.580284 459.885367 241.430278 461.395865 242.93206 462.906363 244.433841 464.674057 245.571043 466.699 246.343699 468.723943 247.116355 470.896619 247.502677 473.217094 247.502677 474.596244 247.502677 475.898756 247.323119 477.124667 246.963997 478.350578 246.604875 479.477962 246.055319 480.506852 245.31531L480.506852 233.562294 472.9544 233.562294 472.9544 229.775211zM598.465531 206.008L619.219267 250.985778 608.124502 250.985778 602.57712 238.961372 585.380235 238.961372 579.5718 250.985778 572.197044 250.985778 593.766572 206.008 598.465531 206.008zM588.5526 234.630222L601.841489 234.630222 595.294757 220.319111 588.5526 234.630222zM656.019267 207.030222L672.836471 207.030222C675.738278 207.030222 678.271825 207.327362 680.437188 207.921651 682.602551 208.51594 684.405161 209.347932 685.845073 210.417653 687.284985 211.487373 688.36765 212.756971 689.093102 214.226486 689.818553 215.696 690.181274 217.295154 690.181274 219.023995 690.181274 220.277404 689.933964 221.460562 689.439338 222.573503 688.944712 223.686444 688.252246 224.712928 687.361919 225.652985 686.471592 226.593042 685.394422 227.425035 684.130378 228.148987 682.866333 228.872939 681.475905 229.472621 679.959052 229.948052L695.885933 250.985778 683.949016 250.985778 668.945432 231.115014 666.999912 231.115014 666.999912 250.985778 656.019267 250.985778 656.019267 207.030222zM667.263711 226.452444L669.537868 226.452444C670.822353 226.452444 672.012062 226.275843 673.107032 225.922634 674.202002 225.569426 675.149558 225.065591 675.949729 224.411117 676.749899 223.756642 677.376339 222.951546 677.829067 221.995805 678.281795 221.040064 678.508156 219.959677 678.508156 218.754612 678.508156 217.632656 678.334437 216.604211 677.986995 215.669247 677.639552 214.734283 677.16051 213.929187 676.549853 213.253935 675.939197 212.578683 675.202209 212.054072 674.338867 211.680087 673.475525 211.306101 672.538498 211.119111 671.527756 211.119111L667.263711 211.119111 667.263711 226.452444zM767.441489 207.030222L767.441489 210.790432 751.976256 210.790432 751.976256 250.985778 741.028586 250.985778 741.028586 210.790432 725.530378 210.790432 725.530378 207.030222 767.441489 207.030222zM821.47102 252.008C818.79159 252.008 816.447123 251.69675 814.43755 251.074239 812.427977 250.451729 810.720415 249.594425 809.314812 248.502302 807.909209 247.410179 806.789136 246.105111 805.954559 244.58706 805.119982 243.069009 804.548965 241.403546 804.241489 239.590621L811.851473 239.590621C812.115024 240.704587 812.499362 241.742088 813.004501 242.703157 813.50964 243.664225 814.152034 244.499687 814.931705 245.209567 815.711375 245.919447 816.633788 246.476422 817.698972 246.880507 818.764155 247.284593 819.99953 247.486632 821.405133 247.486632 822.32756 247.486632 823.244482 247.388343 824.155928 247.191761 825.067374 246.995179 825.885466 246.673007 826.61023 246.225236 827.334994 245.777466 827.916993 245.198649 828.356244 244.488769 828.795495 243.778889 829.015117 242.899743 829.015117 241.851305 829.015117 240.540757 828.674703 239.372203 827.993864 238.345607 827.313025 237.319011 826.412574 236.38526 825.292484 235.544325 824.172394 234.70339 822.898586 233.922534 821.47102 233.201732 820.043455 232.480931 818.582967 231.75468 817.089514 231.022957 815.596061 230.291235 814.135574 229.521299 812.708008 228.713128 811.280443 227.904957 810.006634 227.003969 808.886544 226.010137 807.766454 225.016305 806.866003 223.891435 806.185165 222.635493 805.504326 221.379551 805.163911 219.943431 805.163911 218.327088 805.163911 216.557849 805.553741 214.925149 806.333411 213.42894 807.113081 211.932731 808.238645 210.633124 809.710136 209.53008 811.181626 208.427035 812.982528 207.564271 815.112895 206.941761 817.243262 206.31925 819.670087 206.008 822.393443 206.008 824.633622 206.008 826.665127 206.31379 828.488019 206.925379 830.31091 207.536968 831.919642 208.383351 833.314264 209.464553 834.708886 210.545755 835.878374 211.812599 836.822763 213.265123 837.767153 214.717646 838.491906 216.273899 838.997044 217.933926L832.111821 217.933926C831.716495 216.885488 831.255288 215.880749 830.728187 214.919681 830.201086 213.958612 829.553201 213.11769 828.784512 212.396889 828.015822 211.676088 827.082428 211.102731 825.984301 210.676803 824.886174 210.250875 823.579422 210.037915 822.064006 210.037915 820.636441 210.037915 819.434009 210.223573 818.456676 210.594895 817.479343 210.966216 816.694193 211.441283 816.101205 212.020108 815.508216 212.598934 815.079953 213.243277 814.816402 213.953157 814.552851 214.663037 814.421078 215.356525 814.421078 216.033641 814.421078 217.213134 814.772474 218.283399 815.475275 219.244467 816.178077 220.205536 817.10598 221.101063 818.259014 221.931077 819.412048 222.761091 820.72429 223.552868 822.195781 224.306433 823.667271 225.059998 825.166193 225.819012 826.692589 226.583499 828.218986 227.347985 829.717908 228.150683 831.189398 228.991618 832.660889 229.832553 833.973131 230.755383 835.126165 231.760137 836.279199 232.76489 837.207102 233.878839 837.909904 235.102017 838.612705 236.325195 838.964101 237.70125 838.964101 239.230222 838.964101 241.043147 838.590743 242.724991 837.844017 244.275806 837.09729 245.826621 835.988198 247.175373 834.516707 248.322103 833.045217 249.468832 831.216862 250.36982 829.031589 251.025094 826.846316 251.680368 824.326151 252.008 821.47102 252.008z" transform="translate(-.133)"/>
</svg>
