<?xml version="1.0" encoding="UTF-8"?>
<svg width="840px" height="252px" viewBox="0 0 840 252" version="1.1" xmlns="http://www.w3.org/2000/svg" xmlns:xlink="http://www.w3.org/1999/xlink">
    <!-- Generator: Sketch 55.2 (78181) - https://sketchapp.com -->
    <title>Group</title>
    <desc>Created with Sketch.</desc>
    <g id="Page-1" stroke="none" stroke-width="1" fill="none" fill-rule="evenodd">
        <g id="Square" transform="translate(-71.000000, -380.000000)" fill="#FFFFFF" fill-rule="nonzero">
            <g id="Group" transform="translate(70.867000, 379.360000)">
                <path d="M16.133,30.4430303 C16.133,23.6945117 15.199676,18.6993596 13.333,15.4574242 C11.466324,12.2154888 7.733028,10.5945455 2.133,10.5945455 L0.133,10.5945455 L0.133,4.64 L24.133,4.64 C28.933024,4.64 32.599654,5.43393145 35.133,7.02181818 C37.666346,8.60970491 39.466328,11.2230626 40.533,14.8619697 C41.599672,18.5008768 42.133,23.6945117 42.133,30.4430303 L42.133,126.708182 L111.133,126.708182 L111.133,135.64 L16.133,135.64 L16.133,30.4430303 Z M240.576114,136.64 C232.213797,136.64 224.648004,134.883993 217.878509,131.371928 C211.109014,127.859862 205.600586,121.001497 201.35306,110.796627 L196.773719,99.6640964 L143.812641,99.6640964 L127.486293,135.844819 L117.133,135.844819 L175.86803,4.64 L184.827611,4.64 L229.426413,110.796627 C234.470351,123.121989 241.372477,129.748429 250.133,130.676145 L250.133,135.646024 C247.743766,136.308678 244.55817,136.64 240.576114,136.64 Z M149.133,90.64 L194.133,90.64 L172.230345,38.64 L149.133,90.64 Z M263.017058,30.4430303 C263.017058,23.6945117 262.090497,18.6993596 260.237348,15.4574242 C258.384198,12.2154888 254.677955,10.5945455 249.118507,10.5945455 L247.133,10.5945455 L247.133,4.64 L270.959087,4.64 C275.724328,4.64 279.364388,5.43393145 281.879377,7.02181818 C284.394365,8.60970491 286.181304,11.2230626 287.240246,14.8619697 C288.299189,18.5008768 288.828652,23.6945117 288.828652,30.4430303 L288.828652,63.1930303 L342.437348,63.1930303 L342.437348,4.64 L368.248942,4.64 L368.248942,109.83697 C368.248942,116.585488 369.175503,121.58064 371.028652,124.822576 C372.881802,128.064511 376.588045,129.685455 382.147493,129.685455 L384.133,129.685455 L384.133,135.64 L360.306913,135.64 C355.541672,135.64 351.901612,134.879149 349.386623,133.357424 C346.871635,131.835699 345.084696,129.255422 344.025754,125.616515 C342.966811,121.977608 342.437348,116.717812 342.437348,109.83697 L342.437348,72.1248485 L288.828652,72.1248485 L288.828652,135.64 L263.017058,135.64 L263.017058,30.4430303 Z M460.732393,139.64 C447.877498,139.64 436.447415,136.595269 426.441801,130.505714 C416.436187,124.41616 408.71674,116.076243 403.283228,105.485714 C397.849715,94.8951851 395.133,83.1133982 395.133,70.14 C395.133,57.1666018 397.849715,45.3848149 403.283228,34.7942857 C408.71674,24.2037566 416.436187,15.86384 426.441801,9.77428571 C436.447415,3.68473146 447.877498,0.64 460.732393,0.64 C473.587288,0.64 484.98424,3.68473146 494.923592,9.77428571 C504.862943,15.86384 512.54926,24.2037566 517.982772,34.7942857 C523.416285,45.3848149 526.133,57.1666018 526.133,70.14 C526.133,83.1133982 523.416285,94.8951851 517.982772,105.485714 C512.54926,116.076243 504.862943,124.41616 494.923592,130.505714 C484.98424,136.595269 473.587288,139.64 460.732393,139.64 Z M461.033262,130.64 C473.13481,130.64 482.510045,125.383495 489.159247,114.870328 C495.808449,104.357161 499.133,89.4472004 499.133,70.14 C499.133,50.8327996 495.808449,35.9228395 489.159247,25.4096721 C482.510045,14.8965048 473.13481,9.64 461.033262,9.64 C448.931715,9.64 439.589726,14.8965048 433.007016,25.4096721 C426.424306,35.9228395 423.133,50.8327996 423.133,70.14 C423.133,89.4472004 426.424306,104.357161 433.007016,114.870328 C439.589726,125.383495 448.931715,130.64 461.033262,130.64 Z M702.133,144.64 C687.881958,144.64 677.622682,141.297244 671.354863,134.611631 C665.087044,127.926019 661.953181,117.037239 661.953181,101.944965 L661.953181,31.6470922 L618.60648,135.70383 L612.074785,135.70383 L559.029507,27.675461 L559.029507,135.70383 L549.133,135.70383 L549.133,4.64 L573.280477,4.64 L621.179572,102.143546 L661.755251,4.64 L687.6841,4.64 L687.6841,101.944965 C687.6841,114.389471 688.739716,123.524132 690.850982,129.34922 C692.962247,135.174308 696.722882,138.616354 702.133,139.675461 L702.133,144.64 Z M830.576114,136.64 C822.213797,136.64 814.648004,134.883993 807.878509,131.371928 C801.109014,127.859862 795.600586,121.001497 791.35306,110.796627 L786.773719,99.6640964 L733.812641,99.6640964 L717.486293,135.844819 L707.133,135.844819 L765.86803,4.64 L774.827611,4.64 L819.426413,110.796627 C824.470351,123.121989 831.372477,129.748429 840.133,130.676145 L840.133,135.646024 C837.743766,136.308678 834.55817,136.64 830.576114,136.64 Z M738.133,90.64 L783.133,90.64 L761.230345,38.64 L738.133,90.64 Z" id="LAHOMA"></path>
                <path d="M21.9867795,230.045299 L21.9867795,250.985778 L10.9970444,250.985778 L10.9970444,207.030222 L21.9867795,207.030222 L21.9867795,226.285089 L39.9729826,226.285089 L39.9729826,207.030222 L50.8637111,207.030222 L50.8637111,250.985778 L39.9729826,250.985778 L39.9729826,230.045299 L21.9867795,230.045299 Z M125.485933,207.030222 L125.485933,210.790432 L103.527833,210.790432 L103.527833,225.280206 L121.772431,225.280206 L121.772431,229.040416 L103.527833,229.040416 L103.527833,246.480009 L125.485933,246.480009 L125.485933,250.985778 L92.7748222,250.985778 L92.7748222,207.030222 L125.485933,207.030222 Z M184.465531,206.008 L205.219267,250.985778 L194.124502,250.985778 L188.57712,238.961372 L171.380235,238.961372 L165.5718,250.985778 L158.197044,250.985778 L179.766572,206.008 L184.465531,206.008 Z M173.530378,234.630222 L186.819267,234.630222 L180.272535,220.319111 L173.530378,234.630222 Z M242.019267,207.030222 L252.978486,207.030222 L252.978486,246.480009 L275.7526,246.480009 L275.7526,250.985778 L242.019267,250.985778 L242.019267,207.030222 Z M313.574822,207.030222 L324.819267,207.030222 L324.819267,250.985778 L313.574822,250.985778 L313.574822,207.030222 Z M364.685933,207.030222 L371.797826,207.030222 L397.607653,235.206708 L397.607653,207.030222 L404.5526,207.030222 L404.5526,252.008 L399.777949,252.008 L371.731048,220.889654 L371.731048,251.354253 L364.685933,251.354253 L364.685933,207.030222 Z M472.9544,229.775211 L491.441489,229.775211 L491.441489,246.817084 C490.018556,247.578858 488.595645,248.275326 487.172712,248.90651 C485.749779,249.537693 484.228358,250.081809 482.608404,250.538873 C480.98845,250.995937 479.220756,251.355053 477.305269,251.616233 C475.389783,251.877412 473.238997,252.008 470.852848,252.008 C467.021875,252.008 463.49196,251.474767 460.262997,250.408284 C457.034034,249.341801 454.242939,247.840042 451.889627,245.902961 C449.536315,243.96588 447.702948,241.626183 446.389472,238.883798 C445.075995,236.141414 444.419267,233.105249 444.419267,229.775211 C444.419267,226.249288 445.075995,223.028123 446.389472,220.11162 C447.702948,217.195116 449.530842,214.692184 451.873208,212.602748 C454.215575,210.513312 457.001198,208.891848 460.230161,207.738305 C463.459123,206.584763 466.989039,206.008 470.820012,206.008 C473.074813,206.008 475.247489,206.312705 477.338106,206.922123 C479.428723,207.531542 481.360599,208.336833 483.133792,209.338021 C484.906985,210.339209 486.505024,211.487293 487.927957,212.782308 C489.35089,214.077323 490.522055,215.410406 491.441489,216.781598 L486.942855,220.862507 C486.00153,219.534845 485.016437,218.305143 483.987547,217.173366 C482.958657,216.041588 481.86411,215.056739 480.703873,214.218788 C479.543635,213.380837 478.301324,212.722457 476.976902,212.243628 C475.65248,211.764799 474.235041,211.525388 472.724543,211.525388 C470.425959,211.525388 468.286119,211.938916 466.304959,212.765984 C464.323798,213.593053 462.605359,214.784666 461.149589,216.34086 C459.69382,217.897054 458.555491,219.8069 457.734568,222.070456 C456.913645,224.334011 456.50319,226.902237 456.50319,229.775211 C456.50319,232.648185 456.941009,235.183764 457.81666,237.382024 C458.692311,239.580284 459.885367,241.430278 461.395865,242.93206 C462.906363,244.433841 464.674057,245.571043 466.699,246.343699 C468.723943,247.116355 470.896619,247.502677 473.217094,247.502677 C474.596244,247.502677 475.898756,247.323119 477.124667,246.963997 C478.350578,246.604875 479.477962,246.055319 480.506852,245.31531 L480.506852,233.562294 L472.9544,233.562294 L472.9544,229.775211 Z M598.465531,206.008 L619.219267,250.985778 L608.124502,250.985778 L602.57712,238.961372 L585.380235,238.961372 L579.5718,250.985778 L572.197044,250.985778 L593.766572,206.008 L598.465531,206.008 Z M588.5526,234.630222 L601.841489,234.630222 L595.294757,220.319111 L588.5526,234.630222 Z M656.019267,207.030222 L672.836471,207.030222 C675.738278,207.030222 678.271825,207.327362 680.437188,207.921651 C682.602551,208.51594 684.405161,209.347932 685.845073,210.417653 C687.284985,211.487373 688.36765,212.756971 689.093102,214.226486 C689.818553,215.696 690.181274,217.295154 690.181274,219.023995 C690.181274,220.277404 689.933964,221.460562 689.439338,222.573503 C688.944712,223.686444 688.252246,224.712928 687.361919,225.652985 C686.471592,226.593042 685.394422,227.425035 684.130378,228.148987 C682.866333,228.872939 681.475905,229.472621 679.959052,229.948052 L695.885933,250.985778 L683.949016,250.985778 L668.945432,231.115014 L666.999912,231.115014 L666.999912,250.985778 L656.019267,250.985778 L656.019267,207.030222 Z M667.263711,226.452444 L669.537868,226.452444 C670.822353,226.452444 672.012062,226.275843 673.107032,225.922634 C674.202002,225.569426 675.149558,225.065591 675.949729,224.411117 C676.749899,223.756642 677.376339,222.951546 677.829067,221.995805 C678.281795,221.040064 678.508156,219.959677 678.508156,218.754612 C678.508156,217.632656 678.334437,216.604211 677.986995,215.669247 C677.639552,214.734283 677.16051,213.929187 676.549853,213.253935 C675.939197,212.578683 675.202209,212.054072 674.338867,211.680087 C673.475525,211.306101 672.538498,211.119111 671.527756,211.119111 L667.263711,211.119111 L667.263711,226.452444 Z M767.441489,207.030222 L767.441489,210.790432 L751.976256,210.790432 L751.976256,250.985778 L741.028586,250.985778 L741.028586,210.790432 L725.530378,210.790432 L725.530378,207.030222 L767.441489,207.030222 Z M821.47102,252.008 C818.79159,252.008 816.447123,251.69675 814.43755,251.074239 C812.427977,250.451729 810.720415,249.594425 809.314812,248.502302 C807.909209,247.410179 806.789136,246.105111 805.954559,244.58706 C805.119982,243.069009 804.548965,241.403546 804.241489,239.590621 L811.851473,239.590621 C812.115024,240.704587 812.499362,241.742088 813.004501,242.703157 C813.50964,243.664225 814.152034,244.499687 814.931705,245.209567 C815.711375,245.919447 816.633788,246.476422 817.698972,246.880507 C818.764155,247.284593 819.99953,247.486632 821.405133,247.486632 C822.32756,247.486632 823.244482,247.388343 824.155928,247.191761 C825.067374,246.995179 825.885466,246.673007 826.61023,246.225236 C827.334994,245.777466 827.916993,245.198649 828.356244,244.488769 C828.795495,243.778889 829.015117,242.899743 829.015117,241.851305 C829.015117,240.540757 828.674703,239.372203 827.993864,238.345607 C827.313025,237.319011 826.412574,236.38526 825.292484,235.544325 C824.172394,234.70339 822.898586,233.922534 821.47102,233.201732 C820.043455,232.480931 818.582967,231.75468 817.089514,231.022957 C815.596061,230.291235 814.135574,229.521299 812.708008,228.713128 C811.280443,227.904957 810.006634,227.003969 808.886544,226.010137 C807.766454,225.016305 806.866003,223.891435 806.185165,222.635493 C805.504326,221.379551 805.163911,219.943431 805.163911,218.327088 C805.163911,216.557849 805.553741,214.925149 806.333411,213.42894 C807.113081,211.932731 808.238645,210.633124 809.710136,209.53008 C811.181626,208.427035 812.982528,207.564271 815.112895,206.941761 C817.243262,206.31925 819.670087,206.008 822.393443,206.008 C824.633622,206.008 826.665127,206.31379 828.488019,206.925379 C830.31091,207.536968 831.919642,208.383351 833.314264,209.464553 C834.708886,210.545755 835.878374,211.812599 836.822763,213.265123 C837.767153,214.717646 838.491906,216.273899 838.997044,217.933926 L832.111821,217.933926 C831.716495,216.885488 831.255288,215.880749 830.728187,214.919681 C830.201086,213.958612 829.553201,213.11769 828.784512,212.396889 C828.015822,211.676088 827.082428,211.102731 825.984301,210.676803 C824.886174,210.250875 823.579422,210.037915 822.064006,210.037915 C820.636441,210.037915 819.434009,210.223573 818.456676,210.594895 C817.479343,210.966216 816.694193,211.441283 816.101205,212.020108 C815.508216,212.598934 815.079953,213.243277 814.816402,213.953157 C814.552851,214.663037 814.421078,215.356525 814.421078,216.033641 C814.421078,217.213134 814.772474,218.283399 815.475275,219.244467 C816.178077,220.205536 817.10598,221.101063 818.259014,221.931077 C819.412048,222.761091 820.72429,223.552868 822.195781,224.306433 C823.667271,225.059998 825.166193,225.819012 826.692589,226.583499 C828.218986,227.347985 829.717908,228.150683 831.189398,228.991618 C832.660889,229.832553 833.973131,230.755383 835.126165,231.760137 C836.279199,232.76489 837.207102,233.878839 837.909904,235.102017 C838.612705,236.325195 838.964101,237.70125 838.964101,239.230222 C838.964101,241.043147 838.590743,242.724991 837.844017,244.275806 C837.09729,245.826621 835.988198,247.175373 834.516707,248.322103 C833.045217,249.468832 831.216862,250.36982 829.031589,251.025094 C826.846316,251.680368 824.326151,252.008 821.47102,252.008 Z" id="HEALINGARTS"></path>
            </g>
        </g>
    </g>
</svg>