<svg xmlns="http://www.w3.org/2000/svg" width="930" height="247" viewBox="0 0 930 247">
  <path fill="#FFF" d="M9.42535971 218.140271L9.42535971 245 0 245 0 189 9.42535971 189 9.42535971 214.508296 37.5746403 214.508296 37.5746403 189 47 189 47 245 37.5746403 245 37.5746403 218.140271 9.42535971 218.140271zM132 189L132 192.631976 102.432755 192.631976 102.432755 212.650075 122.22885 212.650075 122.22885 216.282051 102.432755 216.282051 102.432755 241.368024 132 241.368024 132 245 93 245 93 189 132 189zM195.507202 187L222 245 212.362396 245 203.786202 226.094395 179.628506 226.094395 170.755118 245 166 245 193.129644 187 195.507202 187zM182 224L203 224 192.650307 201 182 224zM261 189L270.510662 189 270.510662 241.368024 299 241.368024 299 245 261 245 261 189zM337 189L347 189 347 245 337 245 337 189zM393 189L398.331216 189 435.393829 230.459101 435.820327 230.459101 435.820327 189 440 189 440 247 437.782214 247 397.64882 200.924834 397.307623 200.924834 397.307623 245.675018 393 245.675018 393 189zM517.557047 192.041096C514.156583 192.041096 511.018284 192.643709 508.142058 193.848955 505.265832 195.0542 502.786364 196.784055 500.703579 199.038572 498.620795 201.29309 496.998514 204.015485 495.836689 207.20584 494.674864 210.396195 494.09396 213.962249 494.09396 217.90411 494.09396 221.874329 494.724453 225.454562 495.985459 228.644917 497.246464 231.835272 498.975008 234.550578 501.171141 236.790916 503.367274 239.031254 505.953005 240.754019 508.928412 241.959265 511.903818 243.16451 515.091706 243.767123 518.49217 243.767123 520.957507 243.767123 523.181944 243.433913 525.165548 242.767484 527.149152 242.101054 528.934369 241.143962 530.521253 239.896179L530.521253 220.116078 519.852349 220.116078 519.852349 216.755588 540 216.755588 540 241.555155C538.356442 242.434275 536.698741 243.214128 535.026846 243.894737 533.354951 244.575346 531.548481 245.142512 529.607383 245.596251 527.666284 246.04999 525.533942 246.397379 523.210291 246.638428 520.88664 246.879477 518.25132 247 515.304251 247 512.187158 247 509.225965 246.652611 506.420582 245.957823 503.615199 245.263034 501.015299 244.277584 498.620805 243.001442 496.226312 241.7253 494.065632 240.201042 492.138702 238.428623 490.211773 236.656204 488.575324 234.692392 487.229306 232.53713 485.883289 230.381869 484.841913 228.063579 484.105145 225.582192 483.368378 223.100805 483 220.54147 483 217.90411 483 215.26675 483.347126 212.693235 484.041387 210.18349 484.735649 207.673744 485.73452 205.305827 487.038031 203.079668 488.341543 200.85351 489.928402 198.818803 491.798658 196.975487 493.668913 195.132171 495.780003 193.544107 498.131991 192.211247 500.483979 190.878388 503.048457 189.843311 505.825503 189.105984 508.602549 188.368658 511.549574 188 514.666667 188 517.642073 188 520.397825 188.404106 522.934004 189.212329 525.470184 190.020552 527.779632 191.091077 529.862416 192.423937 531.945201 193.756796 533.794175 195.295233 535.409396 197.039293 537.024617 198.783354 538.413119 200.605374 539.574944 202.505407L535.494407 205.22783C533.114082 200.662078 530.471677 197.32289 527.567114 195.210166 524.662551 193.097442 521.325895 192.041096 517.557047 192.041096zM655.507202 187L682 245 672.362396 245 663.786202 226.094395 639.628506 226.094395 630.755118 245 626 245 653.129644 187 655.507202 187zM640 224L661 224 650.650307 201 640 224zM719 189L738.672429 189C742.065228 189 745.044573 189.358971 747.610555 190.076923 750.176537 190.794875 752.314823 191.801401 754.025478 193.096531 755.736132 194.391661 757.026232 195.933123 757.895814 197.720965 758.765397 199.508807 759.200182 201.458511 759.200182 203.570136 759.200182 205.315745 758.865184 206.94871 758.195177 208.46908 757.525171 209.98945 756.584325 211.361985 755.372611 212.586727 754.160898 213.811469 752.699736 214.867266 750.989081 215.754148 749.278426 216.64103 747.396735 217.337856 745.343949 217.844646L766 245 754.923567 245 735.208371 218.689291 728.536852 218.689291 728.536852 245 719 245 719 189zM729 216L734.691176 216C736.89707 216 738.933814 215.710672 740.801471 215.132007 742.669127 214.553342 744.286758 213.735991 745.654412 212.679928 747.022066 211.623865 748.088231 210.343588 748.852941 208.83906 749.617651 207.334531 750 205.641962 750 203.761302 750 202.025308 749.698532 200.434004 749.095588 198.987342 748.492644 197.54068 747.639711 196.303803 746.536765 195.276673 745.433818 194.249543 744.125008 193.446658 742.610294 192.867993 741.095581 192.289328 739.441185 192 737.647059 192L729 192 729 216zM849 189L849 192.631976 828.712595 192.631976 828.712595 245 819.287405 245 819.287405 192.631976 799 192.631976 799 189 849 189zM907.529101 243.42682C908.911823 243.42682 910.280417 243.235402 911.634921 242.852559 912.989425 242.469717 914.202817 241.902551 915.275132 241.151045 916.347448 240.39954 917.20811 239.477895 917.857143 238.386085 918.506176 237.294275 918.830688 236.025242 918.830688 234.578947 918.830688 232.849066 918.386248 231.310629 917.497354 229.96359 916.608461 228.616552 915.444452 227.382966 914.005291 226.262797 912.56613 225.142628 910.922408 224.086282 909.074074 223.093727 907.22574 222.101173 905.342161 221.108633 903.42328 220.116078 901.5044 219.123523 899.620821 218.081356 897.772487 216.989546 895.924153 215.897735 894.28043 214.678329 892.84127 213.331291 891.402109 211.984252 890.2381 210.481263 889.349206 208.822278 888.460313 207.163294 888.015873 205.256199 888.015873 203.100937 888.015873 200.945675 888.417985 198.946416 889.222222 197.1031 890.026459 195.259784 891.204578 193.664631 892.756614 192.317592 894.30865 190.970553 896.220447 189.914207 898.492063 189.148522 900.76368 188.382837 903.366828 188 906.301587 188 908.954158 188 911.324505 188.283583 913.412698 188.850757 915.500892 189.417931 917.335089 190.254501 918.915344 191.36049 920.495599 192.46648 921.835973 193.827678 922.936508 195.444124 924.037043 197.06057 924.925926 198.932217 925.603175 201.05912L920.777778 203.271089C920.213401 201.541207 919.493832 199.960233 918.619048 198.528118 917.744264 197.096003 916.700182 195.869508 915.486772 194.848594 914.273363 193.827681 912.869497 193.040738 911.275132 192.487743 909.680768 191.934748 907.881844 191.658255 905.878307 191.658255 904.10052 191.658255 902.548508 191.90639 901.222222 192.402668 899.895937 192.898945 898.788364 193.551186 897.899471 194.359409 897.010578 195.167632 896.347445 196.075097 895.910053 197.081831 895.472661 198.088565 895.253968 199.116553 895.253968 200.165826 895.253968 201.640478 895.705463 202.994586 896.608466 204.22819 897.511468 205.461794 898.710751 206.624484 900.206349 207.716294 901.701948 208.808104 903.402107 209.864451 905.306878 210.885364 907.21165 211.906278 909.151666 212.941355 911.126984 213.990627 913.102303 215.0399 915.042319 216.131693 916.94709 217.266042 918.851861 218.40039 920.552021 219.641065 922.047619 220.988104 923.543217 222.335143 924.7425 223.809773 925.645503 225.41204 926.548505 227.014307 927 228.807969 927 230.793079 927 233.033417 926.576724 235.139019 925.730159 237.10995 924.883594 239.08088 923.613765 240.796556 921.920635 242.25703 920.227505 243.717503 918.125233 244.873103 915.613757 245.723864 913.10228 246.574626 910.181674 247 906.851852 247 904.142844 247 901.730169 246.702238 899.613757 246.106705 897.497344 245.511172 895.627874 244.646245 894.005291 243.511896 892.382708 242.377548 890.992951 240.995081 889.835979 239.364456 888.679007 237.73383 887.73369 235.869273 887 233.770728L892.037037 231.686373C892.629633 233.52969 893.426803 235.17447 894.428571 236.620764 895.43034 238.067058 896.59435 239.293554 897.920635 240.300288 899.24692 241.307023 900.721332 242.079786 902.343915 242.618601 903.966498 243.157417 905.694876 243.42682 907.529101 243.42682zM0 1L8.98678414 1 8.98678414 115.917143 80 115.917143 80 124 0 124 0 1zM207.546763 89.3842857L136.277698 89.3842857 120.654676 124 111 124 167.523741 1 176.476259 1 233 124 223.345324 124 207.546763 89.3842857zM204 82L171.411444 11 139 82 204 82zM384 1L384 124 375.052632 124 375.052632 65.4871429 292.947368 65.4871429 292.947368 124 284 124 284 1 292.947368 1 292.947368 57.58 375.052632 57.58 375.052632 1 384 1zM508 125C495.92668 125 485.02569 122.271154 475.296703 116.81338 465.567717 111.355607 457.919442 103.873287 452.351648 94.3661972 446.783855 84.8591074 444 74.2371479 444 62.5 444 50.7628521 446.783855 40.1408926 452.351648 30.6338028 457.919442 21.126713 465.567717 13.6443935 475.296703 8.18661972 485.02569 2.72884595 495.92668 0 508 0 520.07332 0 530.97431 2.69950352 540.703297 8.09859155 550.432283 13.4976796 558.080558 20.9506567 563.648352 30.4577465 569.216145 39.9648363 572 50.6454806 572 62.5 572 74.3545194 569.216145 85.0351637 563.648352 94.5422535 558.080558 104.049343 550.432283 111.50232 540.703297 116.901408 530.97431 122.300496 520.07332 125 508 125zM508.088 116C518.413385 116 527.741292 113.662361 536.072 108.987013 544.402708 104.311665 550.973309 97.8539373 555.784 89.6136364 560.594691 81.3733354 563 72.168882 563 62 563 51.831118 560.594691 42.6266646 555.784 34.3863636 550.973309 26.1460627 544.402708 19.6883351 536.072 15.012987 527.741292 10.337639 518.413385 8 508.088 8 497.762615 8 488.405375 10.337639 480.016 15.012987 471.626625 19.6883351 465.026691 26.1460627 460.216 34.3863636 455.405309 42.6266646 453 51.831118 453 62 453 72.168882 455.405309 81.3733354 460.216 89.6136364 465.026691 97.8539373 471.626625 104.311665 480.016 108.987013 488.405375 113.662361 497.762615 116 508.088 116zM748.22191 124L748.046348 18.7471429 696.606742 107.658571 692.217697 107.658571 640.77809 19.0985714 640.77809 124 632 124 632 1 639.549157 1 694.5 96.0614286 749.450843 1 756.824438 1 757 124 748.22191 124zM904.546763 89.3842857L833.277698 89.3842857 817.654676 124 808 124 864.523741 1 873.476259 1 930 124 920.345324 124 904.546763 89.3842857zM902 82L869.411444 11 837 82 902 82z"/>
</svg>
