<svg xmlns="http://www.w3.org/2000/svg" width="931" height="252" viewBox="0 0 931 252">
  <path fill="#FFF" d="M0 1L8.98678414 1 8.98678414 115.917143 80 115.917143 80 124 0 124 0 1zM207.546763 89.3842857L136.277698 89.3842857 120.654676 124 111 124 167.523741 1 176.476259 1 233 124 223.345324 124 207.546763 89.3842857zM205 81L172.411444 10 140 81 205 81zM385 1L385 124 376.052632 124 376.052632 65.4871429 293.947368 65.4871429 293.947368 124 285 124 285 1 293.947368 1 293.947368 57.58 376.052632 57.58 376.052632 1 385 1zM509 125C496.92668 125 486.02569 122.271154 476.296703 116.81338 466.567717 111.355607 458.919442 103.873287 453.351648 94.3661972 447.783855 84.8591074 445 74.2371479 445 62.5 445 50.7628521 447.783855 40.1408926 453.351648 30.6338028 458.919442 21.126713 466.567717 13.6443935 476.296703 8.18661972 486.02569 2.72884595 496.92668 0 509 0 521.07332 0 531.97431 2.69950352 541.703297 8.09859155 551.432283 13.4976796 559.080558 20.9506567 564.648352 30.4577465 570.216145 39.9648363 573 50.6454806 573 62.5 573 74.3545194 570.216145 85.0351637 564.648352 94.5422535 559.080558 104.049343 551.432283 111.50232 541.703297 116.901408 531.97431 122.300496 521.07332 125 509 125zM508.088 116C518.413385 116 527.741292 113.662361 536.072 108.987013 544.402708 104.311665 550.973309 97.8539373 555.784 89.6136364 560.594691 81.3733354 563 72.168882 563 62 563 51.831118 560.594691 42.6266646 555.784 34.3863636 550.973309 26.1460627 544.402708 19.6883351 536.072 15.012987 527.741292 10.337639 518.413385 8 508.088 8 497.762615 8 488.405375 10.337639 480.016 15.012987 471.626625 19.6883351 465.026691 26.1460627 460.216 34.3863636 455.405309 42.6266646 453 51.831118 453 62 453 72.168882 455.405309 81.3733354 460.216 89.6136364 465.026691 97.8539373 471.626625 104.311665 480.016 108.987013 488.405375 113.662361 497.762615 116 508.088 116zM749.22191 124L749.046348 18.7471429 697.606742 107.658571 693.217697 107.658571 641.77809 19.0985714 641.77809 124 633 124 633 1 640.549157 1 695.5 96.0614286 750.450843 1 757.824438 1 758 124 749.22191 124zM905.546763 89.3842857L834.277698 89.3842857 818.654676 124 809 124 865.523741 1 874.476259 1 931 124 921.345324 124 905.546763 89.3842857zM902 81L869.411444 10 837 81 902 81zM14.3344371 223.89233L14.3344371 252 0 252 0 193 14.3344371 193 14.3344371 218.845133 37.794702 218.845133 37.794702 193 52 193 52 252 37.794702 252 37.794702 223.89233 14.3344371 223.89233zM136 193L136 198.047198 106.463968 198.047198 106.463968 217.496313 131.004936 217.496313 131.004936 222.54351 106.463968 222.54351 106.463968 245.952065 136 245.952065 136 252 92 252 92 193 136 193zM198.63567 191L226 251 211.37127 251 204.056905 234.959538 181.382373 234.959538 173.723803 251 164 251 192.439972 191 198.63567 191zM184 230L202 230 193.132353 211 184 230zM260 193L274.294634 193 274.294634 245.952065 304 245.952065 304 252 260 252 260 193zM339 193L353 193 353 252 339 252 339 193zM393 192L402.276382 192 435.941374 229.587209 435.941374 192 445 192 445 252 438.772194 252 402.18928 210.488372 402.18928 251.127907 393 251.127907 393 192zM520.624302 222.517388L545 222.517388 545 245.116395C543.123827 246.126572 541.247682 247.05015 539.371508 247.887154 537.495335 248.724158 535.489303 249.445703 533.353352 250.05181 531.217401 250.657916 528.886651 251.134136 526.361034 251.480483 523.835416 251.826829 520.99955 252 517.853352 252 512.802116 252 508.147833 251.292886 503.890363 249.878637 499.632893 248.464388 495.952762 246.472925 492.84986 243.904187 489.746958 241.33545 487.329618 238.232807 485.597765 234.596167 483.865913 230.959528 483 226.933308 483 222.517388 483 217.841708 483.865913 213.570164 485.597765 209.702626 487.329618 205.835088 489.739742 202.515983 492.828212 199.745209 495.916682 196.974436 499.589597 194.824233 503.847067 193.294535 508.104537 191.764837 512.75882 191 517.810056 191 520.783069 191 523.647798 191.404065 526.40433 192.212207 529.160861 193.020349 531.708089 194.088236 534.046089 195.415898 536.38409 196.74356 538.491145 198.266019 540.367318 199.983322 542.243492 201.700624 543.787703 203.468408 545 205.286728L539.068436 210.698368C537.827275 208.937772 536.528405 207.307081 535.171788 205.806246 533.81517 204.30541 532.371982 202.999414 530.842179 201.888219 529.312376 200.777023 527.674357 199.903954 525.928073 199.268985 524.181788 198.634016 522.312859 198.316537 520.321229 198.316537 517.290488 198.316537 514.469054 198.864911 511.856844 199.961675 509.244633 201.058439 506.978827 202.638622 505.059358 204.702271 503.139888 206.76592 501.638972 209.298542 500.556564 212.300213 499.474157 215.301884 498.932961 218.707575 498.932961 222.517388 498.932961 226.327201 499.510236 229.6896 500.664804 232.604684 501.819373 235.519769 503.392448 237.973021 505.384078 239.964514 507.375708 241.956007 509.706458 243.464036 512.376397 244.488644 515.046336 245.513253 517.911065 246.02555 520.97067 246.02555 522.789115 246.02555 524.50651 245.78744 526.122905 245.311214 527.7393 244.834987 529.225785 244.106227 530.582402 243.124911L530.582402 227.53939 520.624302 227.53939 520.624302 222.517388zM656.63567 191L684 251 669.37127 251 662.056905 234.959538 639.382373 234.959538 631.723803 251 622 251 650.439972 191 656.63567 191zM642 230L660 230 651.132353 211 642 230zM718 193L739.935484 193C743.720449 193 747.025075 193.398841 749.849462 194.196534 752.673849 194.994227 755.02508 196.110981 756.903226 197.546829 758.781371 198.982677 760.193544 200.686814 761.139785 202.659292 762.086026 204.63177 762.55914 206.778258 762.55914 209.09882 762.55914 210.781228 762.236562 212.369339 761.591398 213.863201 760.946233 215.357063 760.043017 216.734876 758.88172 217.996681 757.720424 219.258487 756.31542 220.375241 754.666667 221.346976 753.017913 222.318712 751.204311 223.123645 749.225806 223.761799L770 252 754.430108 252 734.860215 225.328171 732.322581 225.328171 732.322581 252 718 252 718 193zM732 220L735.033708 220C736.7472 220 738.334262 219.758133 739.794944 219.27439 741.255625 218.790648 742.519658 218.100614 743.587079 217.204268 744.6545 216.307922 745.490166 215.205291 746.094101 213.896341 746.698037 212.587392 747 211.107732 747 209.457317 747 207.920724 746.768261 206.512202 746.304775 205.231707 745.84129 203.951213 745.202251 202.848582 744.38764 201.92378 743.57303 200.998979 742.589893 200.28049 741.438202 199.768293 740.286511 199.256095 739.036524 199 737.688202 199L732 199 732 220zM850 193L850 198.047198 829.704957 198.047198 829.704957 252 815.338316 252 815.338316 198.047198 795 198.047198 795 193 850 193zM905.803791 252C902.257486 252 899.154516 251.587255 896.494787 250.761752 893.835058 249.936249 891.575049 248.79939 889.714692 247.35114 887.854335 245.902889 886.371885 244.172256 885.267299 242.159188 884.162712 240.14612 883.406953 237.937571 883 235.533476L893.072038 235.533476C893.420855 237.010691 893.929539 238.386508 894.598104 239.660969 895.26667 240.935429 896.116898 242.043324 897.148815 242.984687 898.180732 243.926049 899.401573 244.664646 900.811374 245.200499 902.221176 245.736351 903.856231 246.004274 905.716588 246.004274 906.937447 246.004274 908.151021 245.873933 909.357346 245.613248 910.563671 245.352563 911.646441 244.925335 912.605687 244.331553 913.564934 243.73777 914.335226 242.970209 914.916588 242.028846 915.497949 241.087483 915.788626 239.921659 915.788626 238.531339 915.788626 236.793439 915.338077 235.243834 914.436967 233.882479 913.535856 232.521123 912.344083 231.282888 910.861611 230.167735 909.37914 229.052582 907.693216 228.017099 905.803791 227.061254 903.914367 226.105408 901.981368 225.142336 900.004739 224.172009 898.02811 223.201681 896.095112 222.18068 894.205687 221.108974 892.316262 220.037269 890.630339 218.84248 889.147867 217.524573 887.665395 216.206665 886.473622 214.714989 885.572512 213.049501 884.671401 211.384014 884.220853 209.479593 884.220853 207.336182 884.220853 204.990017 884.736804 202.824915 885.76872 200.840812 886.800637 198.856709 888.290354 197.133317 890.237915 195.670584 892.185476 194.207851 894.569022 193.063751 897.388626 192.238248 900.208229 191.412745 903.420203 191 907.024645 191 909.989588 191 912.678345 191.405504 915.090995 192.216524 917.503646 193.027544 919.63285 194.149922 921.478673 195.583689 923.324496 197.017457 924.872348 198.697403 926.122275 200.623575 927.372202 202.549748 928.331434 204.613474 929 206.814815L919.887204 206.814815C919.363978 205.424494 918.753558 204.092124 918.055924 202.817664 917.35829 201.543204 916.500795 200.428067 915.483412 199.472222 914.46603 198.516377 913.230655 197.756057 911.777251 197.191239 910.323847 196.626422 908.594323 196.344017 906.588626 196.344017 904.699201 196.344017 903.107747 196.590216 901.814218 197.082621 900.520689 197.575026 899.481521 198.205006 898.696682 198.972578 897.911844 199.740151 897.345025 200.594606 896.996209 201.535969 896.647392 202.477331 896.472986 203.396957 896.472986 204.294872 896.472986 205.858982 896.938068 207.278246 897.868246 208.552707 898.798425 209.827167 900.026533 211.014714 901.552607 212.115385 903.078681 213.216055 904.815472 214.266021 906.763033 215.265313 908.710594 216.264606 910.694461 217.271125 912.714692 218.2849 914.734923 219.298676 916.71879 220.363124 918.666351 221.478276 920.613912 222.593429 922.350703 223.817182 923.876777 225.149573 925.402851 226.481963 926.630959 227.959156 927.561137 229.581197 928.491316 231.203237 928.956398 233.028005 928.956398 235.055556 928.956398 237.459651 928.462248 239.689923 927.473934 241.746439 926.485619 243.802954 925.017703 245.591517 923.070142 247.112179 921.122581 248.632842 918.7027 249.827631 915.810427 250.696581 912.918153 251.565531 909.582641 252 905.803791 252z"/>
</svg>
